<svg width="96" height="96" viewBox="0 0 96 96" fill="none" xmlns="http://www.w3.org/2000/svg">
  <rect width="96" height="96" rx="24" fill="#FFF0F3"/>
  <circle cx="48" cy="42" r="28" fill="#FFFFFF"/>
  <path fill-rule="evenodd" clip-rule="evenodd" d="M48 18C34.745 18 24 28.745 24 42C24 55.255 34.745 66 48 66C61.255 66 72 55.255 72 42C72 28.745 61.255 18 48 18ZM48 31C41.925 31 37 35.925 37 42C37 48.075 41.925 53 48 53C54.075 53 59 48.075 59 42C59 35.925 54.075 31 48 31Z" fill="#9F3F55"/>
  <rect x="62" y="56" width="8" height="25" rx="4" transform="rotate(-45 62 56)" fill="#9F3F55"/>
  <path d="M29 57L39 48L49 58L39 77L29 57Z" fill="#D76580"/>
  <path d="M38 49L44 43L51 50L49 58L39 59L38 49Z" fill="#F7A5B5"/>
  <path d="M28 17L31 27L41 31L31 35L28 45L25 35L15 31L25 27L28 17Z" fill="#D76580"/>
  <path d="M72 16L74 23L81 26L74 29L72 36L70 29L63 26L70 23L72 16Z" fill="#F0A7B5"/>
</svg>
